<svg version="1" xmlns="http://www.w3.org/2000/svg" width="1333.333" height="1333.333" viewBox="0 0 1000.000000 1000.000000"><path d="M493.3.7c4.3.2 11 .2 15 0 4-.1.5-.3-7.8-.3-8.2 0-11.5.2-7.2.3zM468.8 1.7c1.8.2 4.5.2 6 0s0-.4-3.3-.4-4.5.2-2.7.4zM526.8 1.7c1.8.2 4.5.2 6 0s0-.4-3.3-.4-4.5.2-2.7.4zM455.8 2.7c1.2.2 3 .2 4 0 .9-.3-.1-.5-2.3-.4-2.2 0-3 .2-1.7.4zM540.8 2.7c1.2.2 3.2.2 4.5 0 1.2-.2.2-.4-2.3-.4s-3.5.2-2.2.4zM445.3 3.7c.9.2 2.5.2 3.5 0 .9-.3.1-.5-1.8-.5-1.9 0-2.7.2-1.7.5zM552.3 3.7c.9.2 2.5.2 3.5 0 .9-.3.1-.5-1.8-.5-1.9 0-2.7.2-1.7.5zM437.3 4.7c.9.2 2.3.2 3 0 .6-.3-.1-.5-1.8-.5-1.6 0-2.2.2-1.2.5zM561.3 4.7c.9.2 2.3.2 3 0 .6-.3-.1-.5-1.8-.5-1.6 0-2.2.2-1.2.5zM429.8 5.7c.6.2 1.8.2 2.5 0 .6-.3.1-.5-1.3-.5-1.4 0-1.9.2-1.2.5zM568.3 5.7c.9.2 2.3.2 3 0 .6-.3-.1-.5-1.8-.5-1.6 0-2.2.2-1.2.5zM422.8 6.7c.6.2 1.8.2 2.5 0 .6-.3.1-.5-1.3-.5-1.4 0-1.9.2-1.2.5zM575.8 6.7c.6.2 1.8.2 2.5 0 .6-.3.1-.5-1.3-.5-1.4 0-1.9.2-1.2.5zM416.8 7.7c.6.2 1.8.2 2.5 0 .6-.3.1-.5-1.3-.5-1.4 0-1.9.2-1.2.5zM581.8 7.7c.6.2 1.8.2 2.5 0 .6-.3.1-.5-1.3-.5-1.4 0-1.9.2-1.2.5zM411.8 8.7c.7.3 1.6.2 1.9-.1.4-.3-.2-.6-1.3-.5-1.1 0-1.4.3-.6.6zM587.8 8.7c.6.2 1.8.2 2.5 0 .6-.3.1-.5-1.3-.5-1.4 0-1.9.2-1.2.5zM405.8 9.7c.6.2 1.8.2 2.5 0 .6-.3.1-.5-1.3-.5-1.4 0-1.9.2-1.2.5zM592.8 9.7c.6.2 1.8.2 2.5 0 .6-.3.1-.5-1.3-.5-1.4 0-1.9.2-1.2.5zM400.8 10.7c.7.3 1.6.2 1.9-.1.4-.3-.2-.6-1.3-.5-1.1 0-1.4.3-.6.6zM598.8 10.7c.7.3 1.6.2 1.9-.1.4-.3-.2-.6-1.3-.5-1.1 0-1.4.3-.6.6zM396.8 11.7c.7.3 1.6.2 1.9-.1.4-.3-.2-.6-1.3-.5-1.1 0-1.4.3-.6.6zM603.8 11.7c.7.3 1.6.2 1.9-.1.4-.3-.2-.6-1.3-.5-1.1 0-1.4.3-.6.6zM391.8 12.7c.7.3 1.6.2 1.9-.1.4-.3-.2-.6-1.3-.5-1.1 0-1.4.3-.6.6zM607.8 12.7c.7.3 1.6.2 1.9-.1.4-.3-.2-.6-1.3-.5-1.1 0-1.4.3-.6.6zM611.8 13.7c.7.3 1.6.2 1.9-.1.4-.3-.2-.6-1.3-.5-1.1 0-1.4.3-.6.6zM616.8 14.7c.7.3 1.6.2 1.9-.1.4-.3-.2-.6-1.3-.5-1.1 0-1.4.3-.6.6zM378.8 15.7c.7.3 1.6.2 1.9-.1.4-.3-.2-.6-1.3-.5-1.1 0-1.4.3-.6.6zM620.8 15.7c.7.3 1.6.2 1.9-.1.4-.3-.2-.6-1.3-.5-1.1 0-1.4.3-.6.6zM374.8 16.7c.7.3 1.6.2 1.9-.1.4-.3-.2-.6-1.3-.5-1.1 0-1.4.3-.6.6zM624.8 16.7c.7.3 1.6.2 1.9-.1.4-.3-.2-.6-1.3-.5-1.1 0-1.4.3-.6.6zM367.8 18.7c.7.3 1.6.2 1.9-.1.4-.3-.2-.6-1.3-.5-1.1 0-1.4.3-.6.6zM631.8 18.7c.7.3 1.6.2 1.9-.1.4-.3-.2-.6-1.3-.5-1.1 0-1.4.3-.6.6zM361.5 20c-1.3.5-1.4.9-.5.9.8 0 2.4-.4 3.5-.9 1.3-.5 1.4-.9.5-.9-.8 0-2.4.4-3.5.9zM635.8 19.7c.7.3 1.6.2 1.9-.1.4-.3-.2-.6-1.3-.5-1.1 0-1.4.3-.6.6zM351.5 23c-1.3.5-1.4.9-.5.9.8 0 2.4-.4 3.5-.9 1.3-.5 1.4-.9.5-.9-.8 0-2.4.4-3.5.9zM645.8 22.7c.7.3 1.6.2 1.9-.1.4-.3-.2-.6-1.3-.5-1.1 0-1.4.3-.6.6zM331 30c-.8.5-1 1-.5 1 .6 0 1.7-.5 2.5-1s1.1-1 .5-1c-.5 0-1.7.5-2.5 1zM668 30c.8.5 2 1 2.5 1 .6 0 .3-.5-.5-1s-1.9-1-2.5-1c-.5 0-.3.5.5 1zM676 33c.8.5 2 1 2.5 1 .6 0 .3-.5-.5-1s-1.9-1-2.5-1c-.5 0-.3.5.5 1zM315 36c-.8.5-1 1-.5 1 .6 0 1.7-.5 2.5-1s1.1-1 .5-1c-.5 0-1.7.5-2.5 1zM684 36c.8.5 2 1 2.5 1 .6 0 .3-.5-.5-1s-1.9-1-2.5-1c-.5 0-.3.5.5 1zM310 38c-.8.5-1 1-.5 1 .6 0 1.7-.5 2.5-1s1.1-1 .5-1c-.5 0-1.7.5-2.5 1zM689 38c.8.5 2 1 2.5 1 .6 0 .3-.5-.5-1s-1.9-1-2.5-1c-.5 0-.3.5.5 1zM303 41c-.8.5-1 1-.5 1 .6 0 1.7-.5 2.5-1s1.1-1 .5-1c-.5 0-1.7.5-2.5 1zM696 41c.8.5 2 1 2.5 1 .6 0 .3-.5-.5-1s-1.9-1-2.5-1c-.5 0-.3.5.5 1zM294 45c-1.9 1.1-3 1.9-2.5 1.9.6 0 2.6-.8 4.5-1.9 1.9-1.1 3.1-1.9 2.5-1.9-.5 0-2.6.8-4.5 1.9zM705 45c1.9 1.1 4 1.9 4.5 1.9.6 0-.6-.8-2.5-1.9-1.9-1.1-3.9-1.9-4.5-1.9-.5 0 .6.8 2.5 1.9zM715.1 49.4c1 .9 16.9 8.6 16.9 8.1S716.4 49 715.4 49c-.4 0-.5.2-.3.4zM276.8 53.1c-3.2 1.6-5.8 3.2-5.8 3.4 0 .5 11.9-5.2 12.9-6.1 1.3-1.2-2.2.1-7.1 2.7zM259.8 62.1c-2.1 1.1-3.8 2.2-3.8 2.4 0 .3 1.8-.4 4-1.5s4-2.3 4-2.5c0-.7 0-.7-4.2 1.6zM737 60.5c0 .2 1.8 1.4 4 2.5s4 1.8 4 1.5c0-.2-1.8-1.4-4-2.5s-4-1.8-4-1.5zM251.8 66.6c-3.8 2-3.6 2.8.2.9 1.7-.9 3-1.8 3-2 0-.7-.1-.6-3.2 1.1zM748 66.4c0 .3.9 1 2 1.6 1.1.6 2 .8 2 .6 0-.3-.9-1-2-1.6-1.1-.6-2-.8-2-.6zM245.4 70.6c-1.8 1.4-1.8 1.5.4.4 1.2-.6 2.2-1.3 2.2-1.5 0-.8-.5-.6-2.6 1.1zM753 69.4c0 .3.9 1 2 1.6 1.1.6 2 .8 2 .6 0-.3-.9-1-2-1.6-1.1-.6-2-.8-2-.6zM239.3 74.1c-3.5 2.2-4.6 3.7-1.5 2 2.2-1.3 5.8-4 5.2-4.1-.3 0-2 1-3.7 2.1zM758 72.4c0 .3.9 1 2 1.6 1.1.6 2 .8 2 .6 0-.3-.9-1-2-1.6-1.1-.6-2-.8-2-.6zM764.9 76.8c1.4 1.1 3.8 2.7 5.5 3.7l3.1 1.7-2.4-2c-1.4-1.1-3.8-2.7-5.5-3.7l-3.1-1.7 2.4 2z"/><path d="M230.5 79.6c-5.1 3.4-6.9 5.2-2.9 2.9 3.5-2 8.2-5.4 7.4-5.5-.3 0-2.3 1.2-4.5 2.6zM218.6 87.5c-2.7 1.8-5.4 3.9-6 4.6-.6.6 1.7-.7 5.2-3 3.4-2.3 6.2-4.4 6.2-4.6 0-.7-.1-.7-5.4 3zM780 86.4c0 .3 2 1.9 4.5 3.6 2.5 1.7 4.5 2.9 4.5 2.6 0-.3-2-1.9-4.5-3.6-2.5-1.7-4.5-2.9-4.5-2.6zM207.5 95.6l-3 2.6 3.3-2.2c1.7-1.2 3.2-2.3 3.2-2.6 0-.7-.4-.5-3.5 2.2zM790 93.4c0 .2 1.4 1.4 3 2.6 1.7 1.2 3 1.9 3 1.6 0-.2-1.3-1.4-3-2.6-1.6-1.2-3-1.9-3-1.6zM199 101.6c-2.5 1.9-5.2 4.2-6 5.1-.8.9 1.3-.5 4.8-3.1 3.4-2.6 6.2-4.9 6.2-5.2 0-.7-.2-.5-5 3.2zM797 98.4c0 .2.8 1 1.8 1.7 1.5 1.3 1.6 1.2.3-.4s-2.1-2.1-2.1-1.3zM801 101.3c0 .3 1.8 2 4 3.7 2.2 1.7 4 2.9 4 2.7 0-.3-1.8-2-4-3.7-2.2-1.7-4-2.9-4-2.7zM188.4 110.2l-1.9 2.3 2.3-1.9c2.1-1.8 2.7-2.6 1.9-2.6-.2 0-1.2 1-2.3 2.2zM811.5 110c1 1.1 2 2 2.3 2 .3 0-.3-.9-1.3-2s-2-2-2.3-2c-.3 0 .3.9 1.3 2zM180 117.1l-5.5 5.1 5.8-4.7c5-4.2 6.4-5.5 5.5-5.5-.2 0-2.8 2.3-5.8 5.1zM815 112.3c0 .2 2.6 2.6 5.7 5.3 3.1 2.7 5.4 4.4 5 3.7-.9-1.4-10.7-9.7-10.7-9zM150.6 144.2c-12.2 12.3-24.7 25.2-27.6 28.8l-5.2 6.5 6.2-7c3.5-3.9 16.1-16.8 28.2-28.8 12-11.9 21.6-21.7 21.3-21.7-.3 0-10.6 10-22.9 22.2zM829 124.1c1.4 1.4 11.3 11 22 21.4 16.6 16.1 17.4 16.8 5.5 4.6-7.7-7.8-17.6-17.4-22-21.4-4.4-3.9-6.9-5.9-5.5-4.6zM878.6 174.7c4.8 5.7 8.9 10.3 9.2 10.3.6 0-7.5-9.6-13.1-15.4-2.7-2.8-.9-.5 3.9 5.1zM114.9 182.7l-2.4 2.8 2.8-2.4c2.5-2.3 3.2-3.1 2.4-3.1-.2 0-1.4 1.2-2.8 2.7zM110.4 188.2l-1.9 2.3 2.3-1.9c2.1-1.8 2.7-2.6 1.9-2.6-.2 0-1.2 1-2.3 2.2zM889.5 188c1 1.1 2 2 2.3 2 .3 0-.3-.9-1.3-2s-2-2-2.3-2c-.3 0 .3.9 1.3 2zM101.9 199.2c-3.4 4.6-6.7 8.9-7.2 9.5-.5.7-.7 1.3-.4 1.3.2 0 3.7-4.3 7.6-9.5 3.9-5.2 6.9-9.5 6.7-9.5-.3 0-3.3 3.7-6.7 8.2zM899.1 200.5c3.9 5.2 7.4 9.5 7.6 9.5.3 0 .1-.6-.4-1.3-.5-.6-3.8-4.9-7.2-9.5-3.4-4.5-6.4-8.2-6.7-8.2-.2 0 2.8 4.3 6.7 9.5zM86.2 221.2c-7.5 11.3-9.1 13.9-7.5 12.3 1.6-1.6 15.4-22.5 14.8-22.5-.2 0-3.5 4.6-7.3 10.2zM911 217c2.2 3.3 4.3 6 4.6 6 .2 0-1.4-2.7-3.6-6s-4.3-6-4.6-6c-.2 0 1.4 2.7 3.6 6zM917.5 226.6c1 1.7 2.6 4.1 3.7 5.5l2 2.4-1.7-3.1c-1-1.7-2.6-4.1-3.7-5.5l-2-2.4 1.7 3.1zM76.4 236.2c-.4.7-1.4 2.4-2.2 3.8-1.4 2.4-1.3 2.4.3.5 2-2.4 3.7-5.5 3.1-5.5-.3 0-.8.6-1.2 1.2zM924 237c.6 1.1 1.3 2 1.6 2 .2 0 0-.9-.6-2s-1.3-2-1.6-2c-.2 0 0 .9.6 2zM70.5 246c-.9 1.6-1.3 3-1.1 3 .3 0 1.2-1.4 2.1-3 .9-1.7 1.3-3 1.1-3-.3 0-1.2 1.3-2.1 3zM929.5 246c.9 1.6 1.8 3 2.1 3 .2 0-.2-1.4-1.1-3-.9-1.7-1.8-3-2.1-3-.2 0 .2 1.3 1.1 3zM67 252c-.6 1.1-.8 2-.6 2 .3 0 1-.9 1.6-2 .6-1.1.8-2 .6-2-.3 0-1 .9-1.6 2zM933 252c.6 1.1 1.3 2 1.6 2 .2 0 0-.9-.6-2s-1.3-2-1.6-2c-.2 0 0 .9.6 2zM62 261c-1.1 2.2-1.8 4-1.5 4 .2 0 1.4-1.8 2.5-4s1.8-4 1.5-4c-.2 0-1.4 1.8-2.5 4zM938 261c1.1 2.2 2.3 4 2.5 4 .3 0-.4-1.8-1.5-4s-2.3-4-2.5-4c-.3 0 .4 1.8 1.5 4zM54.5 275.1c-.4.6-.5 1.2-.2 1.5.2.3.7-.2 1-1.1.7-1.7.1-2-.8-.4zM945.6 275.3c.3 1 .9 1.5 1.2 1.2.3-.3 0-1.1-.7-1.8-1-.9-1.1-.8-.5.6zM952.1 288.5c0 .5.8 2.6 1.9 4.5 1.1 1.9 1.9 3 1.9 2.5 0-.6-.8-2.6-1.9-4.5-1.1-1.9-1.9-3.1-1.9-2.5zM46.2 292.5c-1.7 3.7-1.4 4.5.4 1.2.9-1.6 1.4-3.1 1.1-3.3-.2-.2-.9.7-1.5 2.1zM42.6 300.5c-.9 2.6-.7 3.2.5 1.2.6-1 .9-2.1.6-2.3-.2-.3-.7.2-1.1 1.1zM957 299.5c0 .5.5 1.7 1 2.5s1 1 1 .5c0-.6-.5-1.7-1-2.5s-1-1.1-1-.5zM39.6 307.5c-.9 2.6-.7 3.2.5 1.2.6-1 .9-2.1.6-2.3-.2-.3-.7.2-1.1 1.1zM960 306.5c0 .5.5 1.7 1 2.5s1 1 1 .5c0-.6-.5-1.7-1-2.5s-1-1.1-1-.5zM37.6 312.5c-.9 2.6-.7 3.2.5 1.2.6-1 .9-2.1.6-2.3-.2-.3-.7.2-1.1 1.1zM962 311.5c0 .5.5 1.7 1 2.5s1 1 1 .5c0-.6-.5-1.7-1-2.5s-1-1.1-1-.5zM35.6 317.5c-.9 2.6-.7 3.2.5 1.2.6-1 .9-2.1.6-2.3-.2-.3-.7.2-1.1 1.1zM964 316.5c0 .5.5 1.7 1 2.5s1 1 1 .5c0-.6-.5-1.7-1-2.5s-1-1.1-1-.5zM312 320.4c-49.6 7.2-86.9 36.7-95.9 75.9-2.8 12.2-3.4 20.5-2.1 31.3 1.9 16.1 6.6 28.3 15.5 40.9 8.6 12.2 25.7 26.1 42 34.3 5.2 2.6 22.4 10.1 81.4 35.8 30.8 13.4 40.4 24.1 40.5 45.4.1 8.4-.3 10.2-2.8 15.7-13.8 30.2-70.5 36-119.3 12.3-10.9-5.3-23.5-13.5-31.9-20.6l-5.1-4.3-18.1 21.1c-14.8 17.3-17.9 21.4-17 22.6 6 7.1 31.3 24.2 47 31.7 24.4 11.5 47.5 17.1 75.3 18.2 22.7.9 41.3-1.6 61.2-8.2 19.8-6.6 34.1-15.4 47.5-29.3 18.4-19.1 26.8-40.1 26.8-66.8 0-36.4-17.3-63.7-52.2-82.8-8.5-4.6-50-22.8-78.3-34.3-30-12.1-40.6-19.1-46.3-30.3-4.2-8.2-5-15.3-2.8-24 6.6-26 38.2-37.3 80.9-28.9 17.3 3.4 34.4 11 49.1 21.8 2.8 2 5.6 4 6.2 4.4 1.2.7 32.4-37 32.4-39 0-.6-3.3-3.6-7.2-6.8-22-17.6-46.4-29.1-73.3-34.5-13.2-2.7-40.2-3.5-53.5-1.6zM33.6 322.5c-.9 2.6-.7 3.2.5 1.2.6-1 .9-2.1.6-2.3-.2-.3-.7.2-1.1 1.1zM490.9 325.5c-.3.2 10.6 78.6 24.2 174.2 13.7 95.6 24.8 174.1 24.9 174.5 0 .5 15.5.8 34.4.8 32 0 34.5-.1 35-1.8.7-2.3 24.1-111.2 27.6-128.7 1.6-7.7 4.4-24 6.1-36.3 1.8-12.2 3.6-22.2 4.1-22.2.4 0 .8 1.2.8 2.6 0 4.2 2.9 22.6 6.1 39.4 2.3 11.5 27.7 128.7 31.4 144.7l.5 2.3h70l.4-2.3c.5-2.3 46.6-345.6 46.6-347 0-.4-14-.7-31-.7-23.9 0-31.2.3-31.5 1.2-.4 1-14.5 167.2-18 211.3-.5 6.4-3.5 67.6-3.5 71.7 0 1-.4 1.8-.8 1.8-.5 0-2.3-8.2-4.1-18.3-1.8-10-5.1-26.3-7.2-36.2-3.5-15.6-32.1-135.9-33.5-140.8-.5-1.6-2.5-1.7-23.5-1.7H627l-1 2.4c-.5 1.4-7.2 27.4-14.9 57.8-13.2 52-21.3 87.5-27.8 122-1.5 8.2-3 14.8-3.4 14.8-.3 0-.9-7.5-1.3-16.8-1.1-29.1-3.5-60-12.7-165.5-4.9-56.5-8.9-102.9-8.9-103.2 0-.6-65.5-.7-66.1 0zM29.6 333.5c-.9 2.6-.7 3.2.5 1.2.6-1 .9-2.1.6-2.3-.2-.3-.7.2-1.1 1.1zM970.6 334c.4 1.4 1.3 3.8 2 5.5 1.1 2.4 1.3 2.5.8.5-.4-1.4-1.3-3.9-2-5.5-1.1-2.4-1.3-2.5-.8-.5zM974.1 344c0 .8.4 2.4.9 3.5.5 1.3.9 1.4.9.5 0-.8-.4-2.4-.9-3.5-.5-1.3-.9-1.4-.9-.5zM24.6 348.6c-.4 1.4-.5 2.8-.3 3.1.3.2.8-.8 1.1-2.3.4-1.4.5-2.8.3-3.1-.3-.2-.8.8-1.1 2.3zM21.1 360.6c0 1.1.3 1.4.6.6.3-.7.2-1.6-.1-1.9-.3-.4-.6.2-.5 1.3zM979.1 360.6c0 1.1.3 1.4.6.6.3-.7.2-1.6-.1-1.9-.3-.4-.6.2-.5 1.3zM19.1 367.6c0 1.1.3 1.4.6.6.3-.7.2-1.6-.1-1.9-.3-.4-.6.2-.5 1.3zM981.1 367.6c0 1.1.3 1.4.6.6.3-.7.2-1.6-.1-1.9-.3-.4-.6.2-.5 1.3zM18.1 371.6c0 1.1.3 1.4.6.6.3-.7.2-1.6-.1-1.9-.3-.4-.6.2-.5 1.3zM982.1 371.6c0 1.1.3 1.4.6.6.3-.7.2-1.6-.1-1.9-.3-.4-.6.2-.5 1.3zM983.1 375.6c0 1.1.3 1.4.6.6.3-.7.2-1.6-.1-1.9-.3-.4-.6.2-.5 1.3zM984.1 379.6c0 1.1.3 1.4.6.6.3-.7.2-1.6-.1-1.9-.3-.4-.6.2-.5 1.3zM15.1 383.6c0 1.1.3 1.4.6.6.3-.7.2-1.6-.1-1.9-.3-.4-.6.2-.5 1.3zM985.1 383.6c0 1.1.3 1.4.6.6.3-.7.2-1.6-.1-1.9-.3-.4-.6.2-.5 1.3zM14.1 387.6c0 1.1.3 1.4.6.6.3-.7.2-1.6-.1-1.9-.3-.4-.6.2-.5 1.3zM986.1 387.6c0 1.1.3 1.4.6.6.3-.7.2-1.6-.1-1.9-.3-.4-.6.2-.5 1.3zM13.1 391.6c0 1.1.3 1.4.6.6.3-.7.2-1.6-.1-1.9-.3-.4-.6.2-.5 1.3zM987.1 391.6c0 1.1.3 1.4.6.6.3-.7.2-1.6-.1-1.9-.3-.4-.6.2-.5 1.3zM12.1 396.6c0 1.1.3 1.4.6.6.3-.7.2-1.6-.1-1.9-.3-.4-.6.2-.5 1.3zM988.1 396.6c0 1.1.3 1.4.6.6.3-.7.2-1.6-.1-1.9-.3-.4-.6.2-.5 1.3zM11.1 401.6c0 1.1.3 1.4.6.6.3-.7.2-1.6-.1-1.9-.3-.4-.6.2-.5 1.3zM989.1 401.6c0 1.1.3 1.4.6.6.3-.7.2-1.6-.1-1.9-.3-.4-.6.2-.5 1.3zM10.1 406.6c0 1.1.3 1.4.6.6.3-.7.2-1.6-.1-1.9-.3-.4-.6.2-.5 1.3zM990.1 406.6c0 1.1.3 1.4.6.6.3-.7.2-1.6-.1-1.9-.3-.4-.6.2-.5 1.3zM9.1 411.6c0 1.1.3 1.4.6.6.3-.7.2-1.6-.1-1.9-.3-.4-.6.2-.5 1.3zM991.2 412c0 1.4.2 1.9.5 1.2.2-.6.2-1.8 0-2.5-.3-.6-.5-.1-.5 1.3zM8.2 417.5c0 1.6.2 2.2.5 1.2.2-.9.2-2.3 0-3-.3-.6-.5.1-.5 1.8zM992.2 418c0 1.4.2 1.9.5 1.2.2-.6.2-1.8 0-2.5-.3-.6-.5-.1-.5 1.3zM7.2 424c0 1.4.2 1.9.5 1.2.2-.6.2-1.8 0-2.5-.3-.6-.5-.1-.5 1.3zM993.2 424c0 1.4.2 1.9.5 1.2.2-.6.2-1.8 0-2.5-.3-.6-.5-.1-.5 1.3zM6.2 430.5c0 1.6.2 2.2.5 1.2.2-.9.2-2.3 0-3-.3-.6-.5.1-.5 1.8zM994.2 430.5c0 1.6.2 2.2.5 1.2.2-.9.2-2.3 0-3-.3-.6-.5.1-.5 1.8zM5.2 438c0 1.9.2 2.7.5 1.7.2-.9.2-2.5 0-3.5-.3-.9-.5-.1-.5 1.8zM995.2 438.5c0 1.6.2 2.2.5 1.2.2-.9.2-2.3 0-3-.3-.6-.5.1-.5 1.8zM4.2 447c0 1.9.2 2.7.5 1.7.2-.9.2-2.5 0-3.5-.3-.9-.5-.1-.5 1.8zM996.2 447c0 1.9.2 2.7.5 1.7.2-.9.2-2.5 0-3.5-.3-.9-.5-.1-.5 1.8zM3.3 457c0 2.5.2 3.5.4 2.2.2-1.2.2-3.2 0-4.5-.2-1.2-.4-.2-.4 2.3zM997.3 457c0 2.5.2 3.5.4 2.2.2-1.2.2-3.2 0-4.5-.2-1.2-.4-.2-.4 2.3zM2.3 471.5c0 3.3.2 4.5.4 2.7.2-1.8.2-4.5 0-6s-.4 0-.4 3.3zM998.3 471.5c0 3.3.2 4.5.4 2.7.2-1.8.2-4.5 0-6s-.4 0-.4 3.3zM1.4 500c0 8 .2 11.2.3 7.2.2-3.9.2-10.5 0-14.5-.1-3.9-.3-.7-.3 7.3zM999.4 499.5c0 7.7.2 10.7.3 6.7.2-4 .2-10.3 0-14-.2-3.7-.3-.4-.3 7.3zM2.3 528.5c0 3.3.2 4.5.4 2.7.2-1.8.2-4.5 0-6s-.4 0-.4 3.3zM998.3 528.5c0 3.3.2 4.5.4 2.7.2-1.8.2-4.5 0-6s-.4 0-.4 3.3zM3.3 543c0 2.5.2 3.5.4 2.2.2-1.2.2-3.2 0-4.5-.2-1.2-.4-.2-.4 2.3zM997.3 543c0 2.5.2 3.5.4 2.2.2-1.2.2-3.2 0-4.5-.2-1.2-.4-.2-.4 2.3zM4.2 553c0 1.9.2 2.7.5 1.7.2-.9.2-2.5 0-3.5-.3-.9-.5-.1-.5 1.8zM996.2 553c0 1.9.2 2.7.5 1.7.2-.9.2-2.5 0-3.5-.3-.9-.5-.1-.5 1.8zM5.2 562c0 1.9.2 2.7.5 1.7.2-.9.2-2.5 0-3.5-.3-.9-.5-.1-.5 1.8zM995.2 561.5c0 1.6.2 2.2.5 1.2.2-.9.2-2.3 0-3-.3-.6-.5.1-.5 1.8zM6.2 569.5c0 1.6.2 2.2.5 1.2.2-.9.2-2.3 0-3-.3-.6-.5.1-.5 1.8zM994.2 569.5c0 1.6.2 2.2.5 1.2.2-.9.2-2.3 0-3-.3-.6-.5.1-.5 1.8zM7.2 576c0 1.4.2 1.9.5 1.2.2-.6.2-1.8 0-2.5-.3-.6-.5-.1-.5 1.3zM993.2 576c0 1.4.2 1.9.5 1.2.2-.6.2-1.8 0-2.5-.3-.6-.5-.1-.5 1.3zM992.2 582c0 1.4.2 1.9.5 1.2.2-.6.2-1.8 0-2.5-.3-.6-.5-.1-.5 1.3zM8.2 583c0 1.4.2 1.9.5 1.2.2-.6.2-1.8 0-2.5-.3-.6-.5-.1-.5 1.3zM9.2 588c0 1.4.2 1.9.5 1.2.2-.6.2-1.8 0-2.5-.3-.6-.5-.1-.5 1.3zM991.2 588c0 1.4.2 1.9.5 1.2.2-.6.2-1.8 0-2.5-.3-.6-.5-.1-.5 1.3zM10.1 593.6c0 1.1.3 1.4.6.6.3-.7.2-1.6-.1-1.9-.3-.4-.6.2-.5 1.3zM990.1 593.6c0 1.1.3 1.4.6.6.3-.7.2-1.6-.1-1.9-.3-.4-.6.2-.5 1.3zM11.1 598.6c0 1.1.3 1.4.6.6.3-.7.2-1.6-.1-1.9-.3-.4-.6.2-.5 1.3zM989.1 598.6c0 1.1.3 1.4.6.6.3-.7.2-1.6-.1-1.9-.3-.4-.6.2-.5 1.3zM12.1 603.6c0 1.1.3 1.4.6.6.3-.7.2-1.6-.1-1.9-.3-.4-.6.2-.5 1.3zM988.1 603.6c0 1.1.3 1.4.6.6.3-.7.2-1.6-.1-1.9-.3-.4-.6.2-.5 1.3zM13.1 608.6c0 1.1.3 1.4.6.6.3-.7.2-1.6-.1-1.9-.3-.4-.6.2-.5 1.3zM987.1 608.6c0 1.1.3 1.4.6.6.3-.7.2-1.6-.1-1.9-.3-.4-.6.2-.5 1.3zM14.1 612.6c0 1.1.3 1.4.6.6.3-.7.2-1.6-.1-1.9-.3-.4-.6.2-.5 1.3zM986.1 612.6c0 1.1.3 1.4.6.6.3-.7.2-1.6-.1-1.9-.3-.4-.6.2-.5 1.3zM15.1 616.6c0 1.1.3 1.4.6.6.3-.7.2-1.6-.1-1.9-.3-.4-.6.2-.5 1.3zM985.1 616.6c0 1.1.3 1.4.6.6.3-.7.2-1.6-.1-1.9-.3-.4-.6.2-.5 1.3zM18.1 628.6c0 1.1.3 1.4.6.6.3-.7.2-1.6-.1-1.9-.3-.4-.6.2-.5 1.3zM982.1 628.6c0 1.1.3 1.4.6.6.3-.7.2-1.6-.1-1.9-.3-.4-.6.2-.5 1.3zM19.1 632.6c0 1.1.3 1.4.6.6.3-.7.2-1.6-.1-1.9-.3-.4-.6.2-.5 1.3zM981.1 632.6c0 1.1.3 1.4.6.6.3-.7.2-1.6-.1-1.9-.3-.4-.6.2-.5 1.3zM21.1 639.6c0 1.1.3 1.4.6.6.3-.7.2-1.6-.1-1.9-.3-.4-.6.2-.5 1.3zM979.1 639.6c0 1.1.3 1.4.6.6.3-.7.2-1.6-.1-1.9-.3-.4-.6.2-.5 1.3zM24.1 649c0 .8.4 2.4.9 3.5.5 1.3.9 1.4.9.5 0-.8-.4-2.4-.9-3.5-.5-1.3-.9-1.4-.9-.5zM975.1 652.6c0 1.1.3 1.4.6.6.3-.7.2-1.6-.1-1.9-.3-.4-.6.2-.5 1.3zM28.6 663c.3 1.4 1.1 3.2 1.6 4 .6 1 .7.7.2-1-.3-1.4-1.1-3.2-1.6-4-.6-1-.7-.7-.2 1zM971.6 662.5c-.9 2.6-.7 3.2.5 1.2.6-1 .9-2.1.6-2.3-.2-.3-.7.2-1.1 1.1zM33 675.5c0 .5.5 1.7 1 2.5s1 1 1 .5c0-.6-.5-1.7-1-2.5s-1-1.1-1-.5zM35 680.5c0 .5.5 1.7 1 2.5s1 1 1 .5c0-.6-.5-1.7-1-2.5s-1-1.1-1-.5zM964.6 681.5c-.9 2.6-.7 3.2.5 1.2.6-1 .9-2.1.6-2.3-.2-.3-.7.2-1.1 1.1zM37 685.5c0 .5.5 1.7 1 2.5s1 1 1 .5c0-.6-.5-1.7-1-2.5s-1-1.1-1-.5zM962.6 686.5c-.9 2.6-.7 3.2.5 1.2.6-1 .9-2.1.6-2.3-.2-.3-.7.2-1.1 1.1zM39 690.5c0 .5.5 1.7 1 2.5s1 1 1 .5c0-.6-.5-1.7-1-2.5s-1-1.1-1-.5zM960.6 691.5c-.9 2.6-.7 3.2.5 1.2.6-1 .9-2.1.6-2.3-.2-.3-.7.2-1.1 1.1zM42 697.5c0 .5.5 1.7 1 2.5s1 1 1 .5c0-.6-.5-1.7-1-2.5s-1-1.1-1-.5zM957.6 698.5c-.9 2.6-.7 3.2.5 1.2.6-1 .9-2.1.6-2.3-.2-.3-.7.2-1.1 1.1zM45.1 704.5c0 .5.6 2.1 1.4 3.5.8 1.4 1.4 2 1.4 1.5 0-.6-.6-2.1-1.4-3.5-.8-1.4-1.4-2.1-1.4-1.5zM953.7 707.5c-2.4 5-2 5.8.4 1.2 1.1-2.2 1.9-4.1 1.7-4.3-.3-.2-1.2 1.2-2.1 3.1zM54 723.9c0 .6.4 1.3 1 1.6.6.3.7-.1.4-.9-.7-1.8-1.4-2.1-1.4-.7zM62 739c1.1 2.2 2.3 4 2.5 4 .3 0-.4-1.8-1.5-4s-2.3-4-2.5-4c-.3 0 .4 1.8 1.5 4zM938 739c-1.1 2.2-1.8 4-1.5 4 .2 0 1.4-1.8 2.5-4s1.8-4 1.5-4c-.2 0-1.4 1.8-2.5 4zM933.5 747c-.9 1.6-1.3 3-1.1 3 .3 0 1.2-1.4 2.1-3 .9-1.7 1.3-3 1.1-3-.3 0-1.2 1.3-2.1 3zM67 748c.6 1.1 1.3 2 1.6 2 .2 0 0-.9-.6-2s-1.3-2-1.6-2c-.2 0 0 .9.6 2zM70.5 754c.9 1.6 1.8 3 2.1 3 .2 0-.2-1.4-1.1-3-.9-1.7-1.8-3-2.1-3-.2 0 .2 1.3 1.1 3zM929.5 754c-.9 1.6-1.3 3-1.1 3 .3 0 1.2-1.4 2.1-3 .9-1.7 1.3-3 1.1-3-.3 0-1.2 1.3-2.1 3zM76 763c.6 1.1 1.3 2 1.6 2 .2 0 0-.9-.6-2s-1.3-2-1.6-2c-.2 0 0 .9.6 2zM924 763c-.6 1.1-.8 2-.6 2 .3 0 1-.9 1.6-2 .6-1.1.8-2 .6-2-.3 0-1 .9-1.6 2zM79.5 768.6c1 1.7 2.6 4.1 3.7 5.5l2 2.4-1.7-3.1c-1-1.7-2.6-4.1-3.7-5.5l-2-2.4 1.7 3.1zM915.9 775.7c-3.5 5.4-11.2 16.2-17.1 24.1-5.9 7.9-10.3 14-9.8 13.7 2.9-1.8 35.3-47.5 33.7-47.5-.2 0-3.3 4.4-6.8 9.7zM89 783c2.2 3.3 4.3 6 4.6 6 .2 0-1.4-2.7-3.6-6s-4.3-6-4.6-6c-.2 0 1.4 2.7 3.6 6zM94.7 791.2c.5.7 3.8 5 7.2 9.5 3.4 4.6 6.4 8.3 6.7 8.3.2 0-2.8-4.3-6.7-9.5-3.9-5.2-7.4-9.5-7.6-9.5-.3 0-.1.6.4 1.2zM113 815c2.3 2.7 4.4 5 4.7 5 .3 0-1.4-2.3-3.7-5-2.3-2.8-4.4-5-4.7-5-.3 0 1.4 2.2 3.7 5zM884.9 817.7l-2.4 2.8 2.8-2.4c1.5-1.4 2.7-2.6 2.7-2.8 0-.8-.8-.1-3.1 2.4zM123.1 827c8.1 9.9 35 37 47.4 47.8 6.1 5.3 12 10.5 13.3 11.6 1.2 1.1 2.2 1.7 2.2 1.4 0-.3-5.5-5.3-12.2-11.1-11.9-10.2-36.7-34.8-49.7-49.2l-6.3-7 5.3 6.5zM872.9 831.6c-5.2 5.9-17.7 18.8-27.9 28.8-10.2 9.9-14.9 14.9-10.5 10.9 13.6-12 50.2-50.3 48.2-50.3-.2 0-4.7 4.8-9.8 10.6zM820 883.1l-5.5 5.1 5.2-4.2c4.6-3.7 7.1-6.1 6.1-6-.2 0-2.8 2.3-5.8 5.1zM188.5 890c1 1.1 2 2 2.3 2 .3 0-.3-.9-1.3-2s-2-2-2.3-2c-.3 0 .3.9 1.3 2zM811.4 890.2l-1.9 2.3 2.3-1.9c1.2-1.1 2.2-2.1 2.2-2.3 0-.8-.8-.2-2.6 1.9zM192 892.3c0 .3 1.8 2 4 3.7 2.2 1.7 4 2.9 4 2.7 0-.3-1.8-2-4-3.7-2.2-1.7-4-2.9-4-2.7zM804.5 895.6l-4 3.6 4.3-3.2c3.6-2.7 4.9-4 4-4-.2 0-2.1 1.6-4.3 3.6zM201 899.4c0 .2.8 1 1.8 1.7 1.5 1.3 1.6 1.2.3-.4s-2.1-2.1-2.1-1.3zM797.9 900.7c-1.3 1.6-1.2 1.7.4.4 1.6-1.3 2.1-2.1 1.3-2.1-.2 0-1 .8-1.7 1.7zM205 902.4c0 .2 1.4 1.4 3 2.6 1.7 1.2 3 1.9 3 1.6 0-.2-1.3-1.4-3-2.6-1.6-1.2-3-1.9-3-1.6zM792.5 904.6l-3 2.6 3.3-2.2c1.7-1.2 3.2-2.3 3.2-2.6 0-.7-.4-.5-3.5 2.2zM212 907.4c0 .3 2 1.9 4.5 3.6 2.5 1.7 4.5 2.9 4.5 2.6 0-.3-2-1.9-4.5-3.6-2.5-1.7-4.5-2.9-4.5-2.6zM784.3 910.1c-2.4 1.7-4.3 3.2-4.3 3.5 0 .3 2-.9 4.5-2.6 2.5-1.7 4.5-3.3 4.5-3.5 0-.7-.2-.6-4.7 2.6zM226.9 917.8c1.4 1.1 3.8 2.7 5.5 3.7l3.1 1.7-2.4-2c-1.4-1.1-3.8-2.7-5.5-3.7l-3.1-1.7 2.4 2zM769.3 920.1c-3.5 2.2-4.6 3.7-1.5 2 2.2-1.3 5.8-4 5.2-4.1-.3 0-2 1-3.7 2.1zM237.5 924.5c1.1.9 2.9 2.1 4 2.6l2 1-2-1.6c-1.1-.9-2.9-2.1-4-2.6l-2-1 2 1.6zM759.4 926.6c-1.8 1.4-1.8 1.5.4.4 1.2-.6 2.2-1.3 2.2-1.5 0-.8-.5-.6-2.6 1.1zM244.5 928.7c.6.6 3.3 2.3 6 3.8 2.8 1.6 4.6 2.4 4 1.8-.5-.6-3.2-2.3-6-3.8-2.7-1.6-4.5-2.4-4-1.8zM754.4 929.6c-1.8 1.4-1.8 1.5.4.4 1.2-.6 2.2-1.3 2.2-1.5 0-.8-.5-.6-2.6 1.1zM748.8 932.6c-3.8 2-3.6 2.8.2.9 1.7-.9 3-1.8 3-2 0-.7-.1-.6-3.2 1.1zM258 936.4c0 .3 1.4 1.2 3 2.1 1.7.9 3 1.3 3 1.1 0-.3-1.3-1.2-3-2.1-1.6-.9-3-1.3-3-1.1zM739.8 937.6c-3.8 2-3.6 2.8.2.9 1.7-.9 3-1.8 3-2 0-.7-.1-.6-3.2 1.1zM271 943.5c0 .7 10.1 5.7 10.6 5.3.2-.2-2.1-1.6-5.1-3.1-3-1.5-5.5-2.5-5.5-2.2zM722 947c-4.1 2.1-7.2 3.9-6.7 4 1 0 14.7-6.9 14.7-7.5 0-.7.3-.8-8 3.5zM294 955c1.9 1.1 4 1.9 4.5 1.9.6 0-.6-.8-2.5-1.9-1.9-1.1-3.9-1.9-4.5-1.9-.5 0 .6.8 2.5 1.9zM705 955c-1.9 1.1-3 1.9-2.5 1.9.6 0 2.6-.8 4.5-1.9 1.9-1.1 3.1-1.9 2.5-1.9-.5 0-2.6.8-4.5 1.9zM303 959c.8.5 2 1 2.5 1 .6 0 .3-.5-.5-1s-1.9-1-2.5-1c-.5 0-.3.5.5 1zM696 959c-.8.5-1 1-.5 1 .6 0 1.7-.5 2.5-1s1.1-1 .5-1c-.5 0-1.7.5-2.5 1zM689 962c-.8.5-1 1-.5 1 .6 0 1.7-.5 2.5-1s1.1-1 .5-1c-.5 0-1.7.5-2.5 1zM684 964c-.8.5-1 1-.5 1 .6 0 1.7-.5 2.5-1s1.1-1 .5-1c-.5 0-1.7.5-2.5 1zM323 967c.8.5 2 1 2.5 1 .6 0 .3-.5-.5-1s-1.9-1-2.5-1c-.5 0-.3.5.5 1zM676 967c-.8.5-1 1-.5 1 .6 0 1.7-.5 2.5-1s1.1-1 .5-1c-.5 0-1.7.5-2.5 1zM331 970c.8.5 2 1 2.5 1 .6 0 .3-.5-.5-1s-1.9-1-2.5-1c-.5 0-.3.5.5 1zM668 970c-.8.5-1 1-.5 1 .6 0 1.7-.5 2.5-1s1.1-1 .5-1c-.5 0-1.7.5-2.5 1zM350 976.5c1.9.7 4.2 1.3 5 1.3.8 0-.1-.6-2-1.3-1.9-.7-4.2-1.3-5-1.3-.8 0 .1.6 2 1.3zM645.8 977.7c.7.3 1.6.2 1.9-.1.4-.3-.2-.6-1.3-.5-1.1 0-1.4.3-.6.6zM360.8 979.7c.7.3 1.6.2 1.9-.1.4-.3-.2-.6-1.3-.5-1.1 0-1.4.3-.6.6zM367.8 981.7c.7.3 1.6.2 1.9-.1.4-.3-.2-.6-1.3-.5-1.1 0-1.4.3-.6.6zM631.8 981.7c.7.3 1.6.2 1.9-.1.4-.3-.2-.6-1.3-.5-1.1 0-1.4.3-.6.6zM378.8 984.7c.7.3 1.6.2 1.9-.1.4-.3-.2-.6-1.3-.5-1.1 0-1.4.3-.6.6zM620.8 984.7c.7.3 1.6.2 1.9-.1.4-.3-.2-.6-1.3-.5-1.1 0-1.4.3-.6.6zM383.8 985.7c.7.3 1.6.2 1.9-.1.4-.3-.2-.6-1.3-.5-1.1 0-1.4.3-.6.6zM616.8 985.7c.7.3 1.6.2 1.9-.1.4-.3-.2-.6-1.3-.5-1.1 0-1.4.3-.6.6zM387.8 986.7c.7.3 1.6.2 1.9-.1.4-.3-.2-.6-1.3-.5-1.1 0-1.4.3-.6.6zM611.8 986.7c.7.3 1.6.2 1.9-.1.4-.3-.2-.6-1.3-.5-1.1 0-1.4.3-.6.6zM391.8 987.7c.7.3 1.6.2 1.9-.1.4-.3-.2-.6-1.3-.5-1.1 0-1.4.3-.6.6zM607.8 987.7c.7.3 1.6.2 1.9-.1.4-.3-.2-.6-1.3-.5-1.1 0-1.4.3-.6.6zM396.8 988.7c.7.3 1.6.2 1.9-.1.4-.3-.2-.6-1.3-.5-1.1 0-1.4.3-.6.6zM603.8 988.7c.7.3 1.6.2 1.9-.1.4-.3-.2-.6-1.3-.5-1.1 0-1.4.3-.6.6zM400.8 989.7c.7.3 1.6.2 1.9-.1.4-.3-.2-.6-1.3-.5-1.1 0-1.4.3-.6.6zM597.8 989.7c.6.2 1.8.2 2.5 0 .6-.3.1-.5-1.3-.5-1.4 0-1.9.2-1.2.5zM405.8 990.7c.6.2 1.8.2 2.5 0 .6-.3.1-.5-1.3-.5-1.4 0-1.9.2-1.2.5zM592.8 990.7c.6.2 1.8.2 2.5 0 .6-.3.1-.5-1.3-.5-1.4 0-1.9.2-1.2.5zM411.8 991.7c.7.3 1.6.2 1.9-.1.4-.3-.2-.6-1.3-.5-1.1 0-1.4.3-.6.6zM587.8 991.7c.7.3 1.6.2 1.9-.1.4-.3-.2-.6-1.3-.5-1.1 0-1.4.3-.6.6zM416.8 992.7c.6.2 1.8.2 2.5 0 .6-.3.1-.5-1.3-.5-1.4 0-1.9.2-1.2.5zM581.8 992.7c.6.2 1.8.2 2.5 0 .6-.3.1-.5-1.3-.5-1.4 0-1.9.2-1.2.5zM422.8 993.7c.6.2 1.8.2 2.5 0 .6-.3.1-.5-1.3-.5-1.4 0-1.9.2-1.2.5zM575.3 993.7c.9.2 2.3.2 3 0 .6-.3-.1-.5-1.8-.5-1.6 0-2.2.2-1.2.5zM430.3 994.7c.9.2 2.3.2 3 0 .6-.3-.1-.5-1.8-.5-1.6 0-2.2.2-1.2.5zM568.3 994.7c.9.2 2.3.2 3 0 .6-.3-.1-.5-1.8-.5-1.6 0-2.2.2-1.2.5zM437.3 995.7c.9.2 2.3.2 3 0 .6-.3-.1-.5-1.8-.5-1.6 0-2.2.2-1.2.5zM561.3 995.7c.9.2 2.3.2 3 0 .6-.3-.1-.5-1.8-.5-1.6 0-2.2.2-1.2.5zM445.3 996.7c.9.2 2.5.2 3.5 0 .9-.3.1-.5-1.8-.5-1.9 0-2.7.2-1.7.5zM551.8 996.7c1.2.2 3 .2 4 0 .9-.3-.1-.5-2.3-.4-2.2 0-3 .2-1.7.4zM455.8 997.7c1.2.2 3 .2 4 0 .9-.3-.1-.5-2.3-.4-2.2 0-3 .2-1.7.4zM540.8 997.7c1.2.2 3.2.2 4.5 0 1.2-.2.2-.4-2.3-.4s-3.5.2-2.2.4zM468.8 998.7c1.7.2 4.7.2 6.5 0 1.7-.2.3-.4-3.3-.4-3.6 0-5 .2-3.2.4zM526.8 998.7c1.8.2 4.5.2 6 0s0-.4-3.3-.4-4.5.2-2.7.4zM493.2 999.7c3.7.2 10 .2 14 0 4-.1 1-.3-6.7-.3s-11 .1-7.3.3z"/></svg>